<svg xmlns="http://www.w3.org/2000/svg" viewBox="0 0 152.05 45.3"><defs><style>.cls-1,.cls-2{fill:#fff;}.cls-1{fill-rule:evenodd;}</style></defs><g id="Layer_2" data-name="Layer 2"><g id="Layer_1-2" data-name="Layer 1"><g id="Layer_2-2" data-name="Layer 2"><g id="Layer_1-2-2" data-name="Layer 1-2"><path class="cls-1" d="M29.18,4.21A24.62,24.62,0,0,1,38,0a31.09,31.09,0,0,1,1.43,6.39,18,18,0,0,0-8.79,3.74,26.92,26.92,0,0,0-1.5-5.92M17,4.73a19.12,19.12,0,0,1,5.74,8.54,19.31,19.31,0,0,1,5.7-8.51A23.37,23.37,0,0,1,30,10.68c-3.29,2.91-5.59,7.08-7.21,12.07h0c-1.63-5-3.94-9.19-7.26-12.11a24.14,24.14,0,0,1,1.53-5.91Zm27.8,1.63A22.35,22.35,0,1,1,.37,9.44a23.14,23.14,0,0,1,.2-3,29.11,29.11,0,0,1,4.67.35,23.78,23.78,0,0,0-.17,2.8C5.07,20.76,13,29.81,22.8,29.81s17.73-9,17.73-20.21a23.24,23.24,0,0,0-.17-2.76,31,31,0,0,1,4.5-.48ZM21.66,29.1C12,28.22,4.8,19.21,6.15,7a18.16,18.16,0,0,1,8.64,3.93A22,22,0,0,0,21.66,29.1Zm2.28,0C33.65,28.22,40.8,19.21,39.45,7a18.16,18.16,0,0,0-8.64,3.93A22,22,0,0,1,23.94,29.1Zm-1.14.07h-.08a21.53,21.53,0,0,1-7.26-17.68c3.37,3.11,5.66,7.57,7.34,12.92,1.68-5.35,4-9.81,7.35-12.92a21.54,21.54,0,0,1-7.27,17.68ZM7.58,0a24.47,24.47,0,0,1,8.8,4.18,27.41,27.41,0,0,0-1.5,5.91A18,18,0,0,0,6.14,6.4,31.2,31.2,0,0,1,7.58,0Z"/><path class="cls-1" d="M56,11.31c-.06-2.05-2.36-2-1.78-.13.38,4.41,0,8.57.06,12.85-.11,1.34,1,2.15,2,0a75.74,75.74,0,0,1,6.56-10.72c.75-1,1.65-1,1.65.12.14,3.38,0,6.56.42,10.15.19,1.94,2.09,2,3.07.16,1.87-3.6,3.42-5.63,5.19-8.57-.39,9.84,3.22,11.73,7.32,7.38.75-1.07,0-2.92-1-1.84-2.45,3-4,3.06-4.55-.36a27.58,27.58,0,0,1,0-7.7c.29-1.72-.94-2-1.74-.69-2,2.95-4,6.24-6.09,9.84-.87,1.89-.88.81-.93-.2l-.34-9c-.15-2.37-2.21-3-3.57-1.12-2.22,2.83-4.39,6.88-6.59,10.32A73.47,73.47,0,0,0,56,11.31"/><path class="cls-1" d="M110.68,11.31c-.06-2.05-2.36-2-1.78-.13.38,4.41,0,8.57.06,12.85-.11,1.34,1,2.15,2,0a74.82,74.82,0,0,1,6.56-10.72c.75-1,1.65-1,1.64.12.14,3.38,0,6.56.42,10.15.2,1.94,2.1,2,3.07.16,1.88-3.6,3.42-5.63,5.2-8.57-.39,9.84,3.22,11.73,7.31,7.38.75-1.07,0-2.92-1-1.84-2.45,3-4,3.06-4.55-.36a27.58,27.58,0,0,1,0-7.7c.29-1.72-.94-2-1.74-.69-2,2.95-4,6.24-6.09,9.84-.88,1.89-.89.81-.93-.2l-.34-9c-.15-2.37-2.21-3-3.57-1.12-2.22,2.83-4.39,6.88-6.59,10.32a73.47,73.47,0,0,0,.22-10.49"/><path class="cls-1" d="M139.19,9.35,135.35,15c-.73,1-1.89.22-1.45-.74L137,8.08c.62-1.16,2.85-.75,2.15,1.27"/><path class="cls-1" d="M148,20.56c-4.6-1.21-10.63-4.47-4.09-8.94,2.59-1.59,5.91-1.84,6.19.48.08.79-.68,1.11-1.09.44-.67-.79-2.44-.88-4.47.36-2.83,2-2.15,4.11,1.51,5.41,3.84.92,5.84,2.12,6,3.94-.06,2.3-2.69,3-6.7,3.11-2.85.08-4.66-.47-5.38-1.66-.44-1,.49-1.83,1.88-1,1.6,1.28,3.29,1.2,6.34.8,2.21-.43,3.4-1.72-.16-2.94"/><path class="cls-1" d="M94.38,15.77c1.69.29,1.22,2.09-.87,3-.82-1.8-.61-3.17.87-3m-3,7.47c-.65-1-.13-2.24,1.36-3.09a6.76,6.76,0,0,0,2,2.83c-1.09,1.11-2.74,1.12-3.37.26Zm-1.34.5c-.77-1.71-.1-3.19,2.21-4.54-.89-2.91,0-4.74,2.21-4.28,2.9.72,2.48,3-.51,4.67a7.19,7.19,0,0,0,1.59,2.53,5.33,5.33,0,0,0,1.12-2.45c0-.42-.27-.55-.59-.61v-.5H99v.57c-.71,0-1.12.1-1.3.66a10,10,0,0,1-1.4,2.88c.77.84,1.41,1.24,2.29.33a.6.6,0,0,1,1,.6,2.6,2.6,0,0,1-3.63.57,2.91,2.91,0,0,1-.37-.33c-2.28,1.72-4.66,1.51-5.59-.1Z"/><rect class="cls-2" x="0.54" y="33.36" width="151.26" height="1.07"/><path class="cls-2" d="M5.43,42.4,6.19,44l-.1.1C6,44,6,43.91,5.9,43.91a1.31,1.31,0,0,0-.4.26,4.83,4.83,0,0,1-1.16.73,3.3,3.3,0,0,1-1.12.19,2.88,2.88,0,0,1-2.13-.84A3.59,3.59,0,0,1,.32,43,5.14,5.14,0,0,1,0,41.22a4.6,4.6,0,0,1,.58-2.35,2.85,2.85,0,0,1,2.64-1.51,3.07,3.07,0,0,1,1.12.19,5.16,5.16,0,0,1,1.16.73,1.31,1.31,0,0,0,.4.26.24.24,0,0,0,.19-.14l.1.09-.76,1.56-.11,0a.38.38,0,0,0,0-.15.43.43,0,0,0-.1-.29,1.67,1.67,0,0,0-.36-.34,2.46,2.46,0,0,0-1.5-.54,1.87,1.87,0,0,0-1.5.64,3.23,3.23,0,0,0,0,3.91,1.92,1.92,0,0,0,1.5.65,2.41,2.41,0,0,0,1.5-.55A1.67,1.67,0,0,0,5.22,43a.43.43,0,0,0,.1-.29.38.38,0,0,0,0-.15Z"/><path class="cls-2" d="M7.26,44.38V38.07a.53.53,0,0,0,0-.25.35.35,0,0,0-.2-.14V37.5h1.7v.18a.3.3,0,0,0-.19.14.54.54,0,0,0-.06.25v6.31a.58.58,0,0,0,.06.26.52.52,0,0,0,.19.14V45H7v-.17a.43.43,0,0,0,.2-.15.53.53,0,0,0,0-.25"/><path class="cls-2" d="M12.4,42.8l1.44-4.39a1.28,1.28,0,0,0,.1-.43.3.3,0,0,0-.27-.3V37.5h1.87v.18a.34.34,0,0,0-.24.13,3.13,3.13,0,0,0-.24.6L13.17,44a1.91,1.91,0,0,0-.12.47.3.3,0,0,0,.25.33V45H11.42v-.17a.3.3,0,0,0,.25-.34,1.83,1.83,0,0,0-.12-.46L9.66,38.41a3.13,3.13,0,0,0-.24-.6.28.28,0,0,0-.24-.13V37.5h1.94v.18a.3.3,0,0,0-.26.3,1.57,1.57,0,0,0,.09.43Z"/><path class="cls-2" d="M16.26,44.38V38.07a.43.43,0,0,0-.05-.25.35.35,0,0,0-.2-.14V37.5h1.71v.18a.35.35,0,0,0-.2.14.54.54,0,0,0-.06.25v6.31a.58.58,0,0,0,.06.26.35.35,0,0,0,.2.14V45H16v-.17a.43.43,0,0,0,.2-.15.43.43,0,0,0,.05-.25"/><path class="cls-2" d="M20.15,43.72H23.5a.23.23,0,0,0,.19-.07.54.54,0,0,0,.11-.27h.13V45.3H23.8a.54.54,0,0,0-.11-.27.21.21,0,0,0-.19,0H18.7v-.17a.36.36,0,0,0,.19-.15.37.37,0,0,0,.06-.25v-6.3a.4.4,0,0,0-.06-.26.3.3,0,0,0-.19-.14V37.5h1.7v.18a.35.35,0,0,0-.2.14.58.58,0,0,0-.05.26Z"/><path class="cls-2" d="M30.05,41.68v2h3.51a.2.2,0,0,0,.18-.07.64.64,0,0,0,.11-.27H34v2h-.13a.64.64,0,0,0-.11-.27.23.23,0,0,0-.18-.08h-5v-.17a.43.43,0,0,0,.2-.15.43.43,0,0,0,0-.25v-6.3a.47.47,0,0,0,0-.26.35.35,0,0,0-.2-.14V37.5h4.86a.23.23,0,0,0,.18-.08.54.54,0,0,0,.11-.27h.13v1.92h-.13a.64.64,0,0,0-.11-.27.2.2,0,0,0-.18-.07H30.05v1.76h2.21a.26.26,0,0,0,.19-.07.63.63,0,0,0,.1-.27h.13V42h-.13a.63.63,0,0,0-.1-.27.27.27,0,0,0-.19-.08Z"/><path class="cls-2" d="M36.17,39.85v4.53a.54.54,0,0,0,.06.25.43.43,0,0,0,.2.15V45h-1.6v-.17a.43.43,0,0,0,.2-.15.53.53,0,0,0,0-.25V38.07a.53.53,0,0,0,0-.25.35.35,0,0,0-.2-.14V37.5h1.85v.18a.24.24,0,0,0-.17.25.57.57,0,0,0,.11.29l3,4.27V38.07a.37.37,0,0,0-.06-.25.32.32,0,0,0-.2-.14V37.5H41v.18a.3.3,0,0,0-.19.14.54.54,0,0,0-.06.25v6.31a.54.54,0,0,0,.06.25.4.4,0,0,0,.19.15V45H39.27v-.17a.23.23,0,0,0,.17-.24.81.81,0,0,0-.19-.38Z"/><path class="cls-2" d="M46.8,42.27H45.45a.25.25,0,0,0-.18.08.81.81,0,0,0-.11.27H45V40.89h.13a.54.54,0,0,0,.11.27.21.21,0,0,0,.18.07H48v.18a.48.48,0,0,0-.2.14.75.75,0,0,0,0,.26v1.53a.53.53,0,0,0,0,.25.43.43,0,0,0,.2.15v.13a5,5,0,0,1-3,1.22,2.89,2.89,0,0,1-2.17-.86,4.12,4.12,0,0,1-1-3,4.16,4.16,0,0,1,.94-2.85,3,3,0,0,1,2.36-1,3.22,3.22,0,0,1,.88.12,4.58,4.58,0,0,1,.94.4,1.07,1.07,0,0,0,.39.14c.06,0,.12,0,.2-.12l.11.08L47,39.76l-.12-.08a.53.53,0,0,0,0-.25.43.43,0,0,0-.15-.2A1.93,1.93,0,0,0,46,38.8a2.76,2.76,0,0,0-.9-.17,1.8,1.8,0,0,0-1.42.65,3,3,0,0,0-.64,2,2.83,2.83,0,0,0,.63,1.91,1.89,1.89,0,0,0,1.5.67,2.68,2.68,0,0,0,.89-.15,2.11,2.11,0,0,0,.76-.39Z"/><path class="cls-2" d="M49.23,44.38V38.07a.37.37,0,0,0-.06-.25.3.3,0,0,0-.19-.14V37.5h1.7v.18a.35.35,0,0,0-.2.14.53.53,0,0,0,0,.25v6.31a.57.57,0,0,0,0,.26.48.48,0,0,0,.2.14V45H49v-.17a.36.36,0,0,0,.19-.15.37.37,0,0,0,.06-.25"/><path class="cls-2" d="M53,39.85v4.53a.53.53,0,0,0,0,.25.43.43,0,0,0,.2.15V45h-1.6v-.17a.43.43,0,0,0,.2-.15.37.37,0,0,0,.06-.25V38.07a.37.37,0,0,0-.06-.25.35.35,0,0,0-.2-.14V37.5h1.86v.18a.24.24,0,0,0-.17.25.49.49,0,0,0,.11.29l3,4.27V38.07a.53.53,0,0,0,0-.25.35.35,0,0,0-.2-.14V37.5h1.6v.18a.35.35,0,0,0-.2.14.54.54,0,0,0-.06.25v6.31a.54.54,0,0,0,.06.25.43.43,0,0,0,.2.15V45H56.11v-.17a.23.23,0,0,0,.17-.24.82.82,0,0,0-.2-.38Z"/><path class="cls-2" d="M60.26,41.68v2h3.51a.2.2,0,0,0,.18-.07.64.64,0,0,0,.11-.27h.13v2h-.13A.77.77,0,0,0,64,45a.23.23,0,0,0-.18-.08h-5v-.17a.43.43,0,0,0,.2-.15.43.43,0,0,0,0-.25v-6.3a.47.47,0,0,0,0-.26.35.35,0,0,0-.2-.14V37.5h4.86a.23.23,0,0,0,.18-.08.54.54,0,0,0,.11-.27h.13v1.92H64a.64.64,0,0,0-.11-.27.2.2,0,0,0-.18-.07H60.26v1.76h2.21a.26.26,0,0,0,.19-.07.63.63,0,0,0,.1-.27h.13V42h-.13a.63.63,0,0,0-.1-.27.27.27,0,0,0-.19-.08Z"/><path class="cls-2" d="M66.49,41.68v2H70a.2.2,0,0,0,.18-.07.54.54,0,0,0,.11-.27h.13v2h-.13a.54.54,0,0,0-.11-.27A.19.19,0,0,0,70,45H65v-.17a.43.43,0,0,0,.2-.15.43.43,0,0,0,0-.25v-6.3a.47.47,0,0,0,0-.26.35.35,0,0,0-.2-.14V37.5h4.9a.23.23,0,0,0,.18-.08.54.54,0,0,0,.11-.27h.13v1.92h-.13a.64.64,0,0,0-.11-.27.2.2,0,0,0-.18-.07H66.49v1.76H68.7a.26.26,0,0,0,.19-.07.52.52,0,0,0,.1-.27h.13V42H69a.52.52,0,0,0-.1-.27.27.27,0,0,0-.19-.08Z"/><path class="cls-2" d="M72.72,40.68h1.84a2.81,2.81,0,0,0,.58,0,.73.73,0,0,0,.31-.14.9.9,0,0,0,.3-.8,1,1,0,0,0-.3-.81.73.73,0,0,0-.31-.14,2.81,2.81,0,0,0-.58,0H72.72Zm0,1.23v2.47a.58.58,0,0,0,.06.26.52.52,0,0,0,.19.14V45h-1.7v-.17a.43.43,0,0,0,.2-.15.53.53,0,0,0,0-.25v-6.3a.57.57,0,0,0,0-.26.35.35,0,0,0-.2-.14V37.5h3.42a3.74,3.74,0,0,1,1,.1,1.53,1.53,0,0,1,.64.34,1.83,1.83,0,0,1,.48.77,3.77,3.77,0,0,1,.14,1c0,1.22-.49,1.93-1.48,2.14l1.06,2a3.69,3.69,0,0,0,.41.69.52.52,0,0,0,.32.18V45h-2v-.17a.19.19,0,0,0,.2-.2,1.42,1.42,0,0,0-.19-.48L74.16,42Z"/><path class="cls-2" d="M78.15,44.38V38.07a.43.43,0,0,0-.05-.25.35.35,0,0,0-.2-.14V37.5h1.71v.18a.35.35,0,0,0-.2.14.54.54,0,0,0-.06.25v6.31a.58.58,0,0,0,.06.26.35.35,0,0,0,.2.14V45H77.9v-.17a.43.43,0,0,0,.2-.15.43.43,0,0,0,.05-.25"/><path class="cls-2" d="M81.93,39.85v4.53a.54.54,0,0,0,.06.25.37.37,0,0,0,.2.15V45h-1.6v-.17a.36.36,0,0,0,.19-.15.37.37,0,0,0,.06-.25V38.07a.37.37,0,0,0-.06-.25.3.3,0,0,0-.19-.14V37.5h1.85v.18a.24.24,0,0,0-.17.25.57.57,0,0,0,.11.29l3,4.27V38.07a.37.37,0,0,0-.06-.25.32.32,0,0,0-.2-.14V37.5h1.6v.18a.35.35,0,0,0-.2.14.53.53,0,0,0,0,.25v6.31a.53.53,0,0,0,0,.25.43.43,0,0,0,.2.15V45H85v-.17a.23.23,0,0,0,.17-.24.81.81,0,0,0-.19-.38Z"/><path class="cls-2" d="M92.56,42.27H91.21a.25.25,0,0,0-.18.08.81.81,0,0,0-.11.27h-.13V40.89h.13a.54.54,0,0,0,.11.27.21.21,0,0,0,.18.07H93.8v.18a.48.48,0,0,0-.2.14.57.57,0,0,0,0,.26v1.53a.53.53,0,0,0,0,.25.43.43,0,0,0,.2.15v.13a5,5,0,0,1-3,1.22,2.87,2.87,0,0,1-2.16-.86,4.17,4.17,0,0,1-1-3,4.16,4.16,0,0,1,.94-2.85,3,3,0,0,1,2.36-1,3.22,3.22,0,0,1,.88.12,4.58,4.58,0,0,1,.94.4,1.07,1.07,0,0,0,.39.14c.06,0,.12,0,.2-.12l.11.08-.64,1.78-.12-.08a.53.53,0,0,0,0-.25,1,1,0,0,0-.15-.2,1.91,1.91,0,0,0-.71-.43,2.76,2.76,0,0,0-.9-.17,1.8,1.8,0,0,0-1.42.65,3,3,0,0,0-.64,2,2.83,2.83,0,0,0,.63,1.91,1.89,1.89,0,0,0,1.5.67,2.68,2.68,0,0,0,.89-.15,2.11,2.11,0,0,0,.76-.39Z"/><path class="cls-2" d="M103.92,38.12l-.65,1.76-.11-.09V39.7a.59.59,0,0,0-.23-.4,2.34,2.34,0,0,0-1.68-.67,1.76,1.76,0,0,0-.75.14,1,1,0,0,0-.38.33.8.8,0,0,0-.15.47.57.57,0,0,0,.38.58,4.57,4.57,0,0,0,.82.16l.63.09a4.65,4.65,0,0,1,.91.22,2.08,2.08,0,0,1,.61.4,1.79,1.79,0,0,1,.43.71,2.8,2.8,0,0,1-.21,2.33,2,2,0,0,1-1.05.83,3.32,3.32,0,0,1-1.13.2,3.83,3.83,0,0,1-2.14-.71.87.87,0,0,0-.27-.14.21.21,0,0,0-.16.12l-.12-.08.59-1.83.12.08v.07a.8.8,0,0,0,.17.45,2.16,2.16,0,0,0,.81.55,2.7,2.7,0,0,0,1,.23,1.62,1.62,0,0,0,.91-.25,1,1,0,0,0,.33-.36,1,1,0,0,0,.12-.48.55.55,0,0,0-.29-.53,3.28,3.28,0,0,0-.82-.2l-.62-.09c-.29,0-.59-.09-.88-.16a2,2,0,0,1-.51-.26,1.55,1.55,0,0,1-.57-.74,2.47,2.47,0,0,1-.19-1,2.59,2.59,0,0,1,.47-1.57,2.27,2.27,0,0,1,1.88-.82,3.07,3.07,0,0,1,1,.15,6.84,6.84,0,0,1,1.13.53,1,1,0,0,0,.28.13c.06,0,.12,0,.2-.13Z"/><path class="cls-2" d="M107.75,38.63a1.64,1.64,0,0,0-1.31.63,3.41,3.41,0,0,0,0,3.93,1.67,1.67,0,0,0,1.32.64,1.62,1.62,0,0,0,1.3-.64,2.46,2.46,0,0,0,.48-.92,3.36,3.36,0,0,0,.14-1,3,3,0,0,0-.62-2,1.67,1.67,0,0,0-1.31-.63m0-1.27A2.73,2.73,0,0,1,110,38.42a4.38,4.38,0,0,1,.89,2.85,4.62,4.62,0,0,1-.43,2,2.8,2.8,0,0,1-2.72,1.82A2.73,2.73,0,0,1,105.49,44a4,4,0,0,1-.68-1.35,5.59,5.59,0,0,1-.2-1.46,5.09,5.09,0,0,1,.42-2,2.85,2.85,0,0,1,2.71-1.83Z"/><path class="cls-2" d="M113.21,43.72h3.35a.23.23,0,0,0,.19-.07.52.52,0,0,0,.1-.27H117V45.3h-.14a.52.52,0,0,0-.1-.27.24.24,0,0,0-.19-.08h-4.81v-.17a.34.34,0,0,0,.2-.15.37.37,0,0,0,.06-.25v-6.3a.4.4,0,0,0-.06-.26.32.32,0,0,0-.2-.14V37.5h1.71v.18a.35.35,0,0,0-.2.14.47.47,0,0,0,0,.26Z"/><path class="cls-2" d="M123.07,38.08v4.17a3.76,3.76,0,0,1-.32,1.78,2.46,2.46,0,0,1-2.38,1.06,3,3,0,0,1-2-.58,1.71,1.71,0,0,1-.56-.9,5.21,5.21,0,0,1-.15-1.36V38.08a.4.4,0,0,0-.06-.26.35.35,0,0,0-.2-.14V37.5h1.71v.18a.35.35,0,0,0-.2.14.48.48,0,0,0-.06.26V41.8a6.7,6.7,0,0,0,.05,1,1.37,1.37,0,0,0,.2.52,1.81,1.81,0,0,0,2.56.06l.06-.06a1.23,1.23,0,0,0,.2-.52,5.57,5.57,0,0,0,0-1V38.08a.4.4,0,0,0-.06-.26.32.32,0,0,0-.2-.14V37.5h1.61v.18a.35.35,0,0,0-.2.14.58.58,0,0,0,0,.26"/><path class="cls-2" d="M127.07,38.73v5.65a.53.53,0,0,0,.05.25.43.43,0,0,0,.2.15V45h-1.7v-.17a.36.36,0,0,0,.19-.15.37.37,0,0,0,.06-.25v-5.7h-1.69a.21.21,0,0,0-.18.07.63.63,0,0,0-.1.27h-.14V37.15h.14a.63.63,0,0,0,.1.27.25.25,0,0,0,.18.08h4.57a.24.24,0,0,0,.19-.08.52.52,0,0,0,.1-.27h.14v1.92H129a.52.52,0,0,0-.1-.27.23.23,0,0,0-.19-.07Z"/><path class="cls-2" d="M130,44.38V38.07a.53.53,0,0,0,0-.25.35.35,0,0,0-.2-.14V37.5h1.7v.18a.3.3,0,0,0-.19.14.54.54,0,0,0-.06.25v6.31a.58.58,0,0,0,.06.26.33.33,0,0,0,.19.14V45h-1.7v-.17a.43.43,0,0,0,.2-.15.53.53,0,0,0,0-.25"/><path class="cls-2" d="M135.42,38.63a1.61,1.61,0,0,0-1.3.63,3.41,3.41,0,0,0,0,3.93,1.67,1.67,0,0,0,2.33.29,1.33,1.33,0,0,0,.29-.29,2.44,2.44,0,0,0,.47-.92,3.37,3.37,0,0,0,.15-1,3,3,0,0,0-.62-2,1.69,1.69,0,0,0-1.32-.63m0-1.27a2.78,2.78,0,0,1,2.27,1.06,4.37,4.37,0,0,1,.88,2.85,4.76,4.76,0,0,1-.42,2,2.82,2.82,0,0,1-2.72,1.82,2.74,2.74,0,0,1-2.26-1.1,3.82,3.82,0,0,1-.68-1.35,5.15,5.15,0,0,1-.21-1.46,5.09,5.09,0,0,1,.42-2,2.87,2.87,0,0,1,2.72-1.83Z"/><path class="cls-2" d="M140.77,39.85v4.53a.54.54,0,0,0,.06.25.43.43,0,0,0,.2.15V45h-1.6v-.17a.43.43,0,0,0,.2-.15.43.43,0,0,0,.05-.25V38.07a.53.53,0,0,0-.05-.25.35.35,0,0,0-.2-.14V37.5h1.85v.18a.24.24,0,0,0-.17.25.57.57,0,0,0,.11.29l3,4.27V38.07a.37.37,0,0,0-.06-.25.3.3,0,0,0-.19-.14V37.5h1.6v.18a.35.35,0,0,0-.2.14.54.54,0,0,0-.06.25v6.31a.54.54,0,0,0,.06.25.37.37,0,0,0,.2.15V45h-1.72v-.17a.23.23,0,0,0,.16-.24.81.81,0,0,0-.19-.38Z"/><path class="cls-2" d="M151.66,38.12,151,39.88l-.11-.09V39.7a.59.59,0,0,0-.23-.4,2.34,2.34,0,0,0-1.68-.67,1.76,1.76,0,0,0-.75.14,1,1,0,0,0-.38.33.86.86,0,0,0-.14.47.57.57,0,0,0,.37.58,4.57,4.57,0,0,0,.82.16l.63.09a4.65,4.65,0,0,1,.91.22,2.08,2.08,0,0,1,.61.4,1.79,1.79,0,0,1,.43.71,2.8,2.8,0,0,1-.21,2.33,2,2,0,0,1-1.05.83,3.32,3.32,0,0,1-1.13.2,3.83,3.83,0,0,1-2.14-.71.87.87,0,0,0-.27-.14.21.21,0,0,0-.16.12l-.12-.08.59-1.83.12.08v.07a.8.8,0,0,0,.17.45,2.16,2.16,0,0,0,.81.55,2.7,2.7,0,0,0,1,.23,1.62,1.62,0,0,0,.91-.25,1,1,0,0,0,.33-.36,1,1,0,0,0,.12-.48.55.55,0,0,0-.29-.53,3.28,3.28,0,0,0-.82-.2l-.62-.09c-.29,0-.59-.09-.88-.16a2,2,0,0,1-.51-.26,1.55,1.55,0,0,1-.57-.74,2.81,2.81,0,0,1,.29-2.58,2.21,2.21,0,0,1,1.87-.82,3.07,3.07,0,0,1,1,.15,6.84,6.84,0,0,1,1.13.53,1,1,0,0,0,.28.13c.06,0,.12,0,.2-.13Z"/></g></g></g></g></svg>